<svg version="1.1" viewBox="0.0 0.0 270.0 270.0" fill="none" stroke="none" stroke-linecap="square" stroke-miterlimit="10" xmlns:xlink="http://www.w3.org/1999/xlink" xmlns="http://www.w3.org/2000/svg"><clipPath id="p.0"><path d="m0 0l270.0 0l0 270.0l-270.0 0l0 -270.0z" clip-rule="nonzero"/></clipPath><g clip-path="url(#p.0)"><path fill="#000000" fill-opacity="0.0" d="m0 0l270.0 0l0 270.0l-270.0 0z" fill-rule="evenodd"/><path fill="#63a9f8" d="m135.17062 8.4174185c-17.591202 0 -32.813652 4.113184 -45.66735 12.339557c-12.853699 8.226376 -22.677597 19.005125 -29.471687 32.33625l33.162537 31.124332c4.2968063 -8.33654 9.878983 -14.928665 16.746529 -19.776344c6.904274 -4.847687 14.524681 -7.2715263 22.861214 -7.2715263c5.4352875 0 10.172791 0.9548416 14.212524 2.86454c4.0764465 1.9096985 7.234787 4.737507 9.475006 8.483448c2.276947 3.7092056 3.4154053 8.0427475 3.4154053 13.000603c0 5.1782074 -1.1935577 9.640282 -3.5806732 13.386215c-2.3503876 3.7092133 -5.6188965 6.5921097 -9.805527 8.648712c-4.1866302 2.019867 -9.089401 3.0298004 -14.708298 3.0298004l-14.543045 0l2.6992798 64.94794l40.59932 0l1.9247589 -27.716644l0 0c6.1996307 -2.286621 11.984879 -5.1669617 17.355774 -8.640976c9.254669 -5.9861603 16.581268 -13.716743 21.979828 -23.191757c5.435272 -9.475021 8.152908 -20.878098 8.152908 -34.20922c0 -13.074051 -3.1583252 -24.84438 -9.475006 -35.31097c-6.3166656 -10.503311 -15.112274 -18.803131 -26.386795 -24.899464c-11.274536 -6.096328 -24.25676 -9.144494 -38.9467 -9.144494zm5.0680237 190.54701c-8.997589 0 -16.37928 2.9930878 -22.14508 8.979233c-5.7658005 5.986145 -8.648697 13.478012 -8.648697 22.475616c0 8.593628 2.8828964 15.938614 8.648697 22.034927c5.7658005 6.0963287 13.147491 9.144485 22.14508 9.144485c8.813965 0 16.08548 -3.0481567 21.81456 -9.144485c5.765808 -6.0963135 8.648697 -13.441299 8.648697 -22.034927c0 -8.997604 -2.8828888 -16.489471 -8.648697 -22.475616c-5.72908 -5.986145 -13.000595 -8.979233 -21.81456 -8.979233z" fill-rule="evenodd"/></g></svg>